<svg xmlns="http://www.w3.org/2000/svg" viewBox="0 0 7782 1648" role="img" aria-label="Zeronia">
  <title>Zeronia</title>
  <g transform="translate(122.9, 1524.9) scale(1, -1)" fill="#ffffff">
    <path d="M622 1028H100V1402H1140V1123L618 374H1140V0H100V279Z M1734 780V642H1859V780ZM1734 297H2254V0H1340V1078H2254V405H1734Z M2848 0H2454V1078H3368V640H2974V780H2848Z M4482 1078V0H3568V1078ZM3962 780V297H4088V780Z M5076 0H4682V1078H5596V0H5202V780H5076Z M5796 1078H6322V0H5928V780H5796ZM6322 1147H5929V1402H6322Z M7041 297V435H6916V297ZM7041 780H6522V1078H7436V0H6522V671H7041Z"/>
  </g>
</svg>
